<svg id="chart" width="900" height="550" role="img" aria-label="Scatter plot with model fit line"><g transform="translate(56,24)"><g class="grid" transform="translate(0,478)" fill="none" font-size="10" font-family="sans-serif" text-anchor="middle"><path class="domain" stroke="currentColor" d="M0.5,-478V0.5H820.5V-478"/><g class="tick" opacity="1" transform="translate(71.80434782608715,0)"><line stroke="#eee" y2="-478"/><text fill="currentColor" y="3" dy="0.71em"/></g><g class="tick" opacity="1" transform="translate(178.76086956521743,0)"><line stroke="#eee" y2="-478"/><text fill="currentColor" y="3" dy="0.71em"/></g><g class="tick" opacity="1" transform="translate(285.7173913043479,0)"><line stroke="#eee" y2="-478"/><text fill="currentColor" y="3" dy="0.71em"/></g><g class="tick" opacity="1" transform="translate(392.6739130434785,0)"><line stroke="#eee" y2="-478"/><text fill="currentColor" y="3" dy="0.71em"/></g><g class="tick" opacity="1" transform="translate(499.63043478260875,0)"><line stroke="#eee" y2="-478"/><text fill="currentColor" y="3" dy="0.71em"/></g><g class="tick" opacity="1" transform="translate(606.5869565217391,0)"><line stroke="#eee" y2="-478"/><text fill="currentColor" y="3" dy="0.71em"/></g><g class="tick" opacity="1" transform="translate(713.5434782608695,0)"><line stroke="#eee" y2="-478"/><text fill="currentColor" y="3" dy="0.71em"/></g><g class="tick" opacity="1" transform="translate(820.5,0)"><line stroke="#eee" y2="-478"/><text fill="currentColor" y="3" dy="0.71em"/></g></g><g class="grid" fill="none" font-size="10" font-family="sans-serif" text-anchor="end"><path class="domain" stroke="currentColor" d="M820,478.5H0.5V0.5H820"/><g class="tick" opacity="1" transform="translate(0,478.5)"><line stroke="#eee" x2="820"/><text fill="currentColor" x="-3" dy="0.32em"/></g><g class="tick" opacity="1" transform="translate(0,435.04545454545456)"><line stroke="#eee" x2="820"/><text fill="currentColor" x="-3" dy="0.32em"/></g><g class="tick" opacity="1" transform="translate(0,391.59090909090907)"><line stroke="#eee" x2="820"/><text fill="currentColor" x="-3" dy="0.32em"/></g><g class="tick" opacity="1" transform="translate(0,348.1363636363636)"><line stroke="#eee" x2="820"/><text fill="currentColor" x="-3" dy="0.32em"/></g><g class="tick" opacity="1" transform="translate(0,304.6818181818182)"><line stroke="#eee" x2="820"/><text fill="currentColor" x="-3" dy="0.32em"/></g><g class="tick" opacity="1" transform="translate(0,261.2272727272728)"><line stroke="#eee" x2="820"/><text fill="currentColor" x="-3" dy="0.32em"/></g><g class="tick" opacity="1" transform="translate(0,217.77272727272728)"><line stroke="#eee" x2="820"/><text fill="currentColor" x="-3" dy="0.32em"/></g><g class="tick" opacity="1" transform="translate(0,174.3181818181818)"><line stroke="#eee" x2="820"/><text fill="currentColor" x="-3" dy="0.32em"/></g><g class="tick" opacity="1" transform="translate(0,130.8636363636364)"><line stroke="#eee" x2="820"/><text fill="currentColor" x="-3" dy="0.32em"/></g><g class="tick" opacity="1" transform="translate(0,87.40909090909093)"><line stroke="#eee" x2="820"/><text fill="currentColor" x="-3" dy="0.32em"/></g><g class="tick" opacity="1" transform="translate(0,43.954545454545524)"><line stroke="#eee" x2="820"/><text fill="currentColor" x="-3" dy="0.32em"/></g><g class="tick" opacity="1" transform="translate(0,0.5)"><line stroke="#eee" x2="820"/><text fill="currentColor" x="-3" dy="0.32em"/></g></g><g class="axis" transform="translate(0,478)" fill="none" font-size="10" font-family="sans-serif" text-anchor="middle"><path class="domain" stroke="currentColor" d="M0.5,6V0.5H820.5V6"/><g class="tick" opacity="1" transform="translate(71.80434782608715,0)"><line stroke="currentColor" y2="6"/><text fill="currentColor" y="9" dy="0.71em">0.65</text></g><g class="tick" opacity="1" transform="translate(178.76086956521743,0)"><line stroke="currentColor" y2="6"/><text fill="currentColor" y="9" dy="0.71em">0.70</text></g><g class="tick" opacity="1" transform="translate(285.7173913043479,0)"><line stroke="currentColor" y2="6"/><text fill="currentColor" y="9" dy="0.71em">0.75</text></g><g class="tick" opacity="1" transform="translate(392.6739130434785,0)"><line stroke="currentColor" y2="6"/><text fill="currentColor" y="9" dy="0.71em">0.80</text></g><g class="tick" opacity="1" transform="translate(499.63043478260875,0)"><line stroke="currentColor" y2="6"/><text fill="currentColor" y="9" dy="0.71em">0.85</text></g><g class="tick" opacity="1" transform="translate(606.5869565217391,0)"><line stroke="currentColor" y2="6"/><text fill="currentColor" y="9" dy="0.71em">0.90</text></g><g class="tick" opacity="1" transform="translate(713.5434782608695,0)"><line stroke="currentColor" y2="6"/><text fill="currentColor" y="9" dy="0.71em">0.95</text></g><g class="tick" opacity="1" transform="translate(820.5,0)"><line stroke="currentColor" y2="6"/><text fill="currentColor" y="9" dy="0.71em">1.00</text></g><text x="820" y="36" fill="#333" text-anchor="end">sup_prop (x)</text></g><g class="axis" fill="none" font-size="10" font-family="sans-serif" text-anchor="end"><path class="domain" stroke="currentColor" d="M-6,478.5H0.5V0.5H-6"/><g class="tick" opacity="1" transform="translate(0,478.5)"><line stroke="currentColor" x2="-6"/><text fill="currentColor" x="-9" dy="0.32em">0.45</text></g><g class="tick" opacity="1" transform="translate(0,435.04545454545456)"><line stroke="currentColor" x2="-6"/><text fill="currentColor" x="-9" dy="0.32em">0.50</text></g><g class="tick" opacity="1" transform="translate(0,391.59090909090907)"><line stroke="currentColor" x2="-6"/><text fill="currentColor" x="-9" dy="0.32em">0.55</text></g><g class="tick" opacity="1" transform="translate(0,348.1363636363636)"><line stroke="currentColor" x2="-6"/><text fill="currentColor" x="-9" dy="0.32em">0.60</text></g><g class="tick" opacity="1" transform="translate(0,304.6818181818182)"><line stroke="currentColor" x2="-6"/><text fill="currentColor" x="-9" dy="0.32em">0.65</text></g><g class="tick" opacity="1" transform="translate(0,261.2272727272728)"><line stroke="currentColor" x2="-6"/><text fill="currentColor" x="-9" dy="0.32em">0.70</text></g><g class="tick" opacity="1" transform="translate(0,217.77272727272728)"><line stroke="currentColor" x2="-6"/><text fill="currentColor" x="-9" dy="0.32em">0.75</text></g><g class="tick" opacity="1" transform="translate(0,174.3181818181818)"><line stroke="currentColor" x2="-6"/><text fill="currentColor" x="-9" dy="0.32em">0.80</text></g><g class="tick" opacity="1" transform="translate(0,130.8636363636364)"><line stroke="currentColor" x2="-6"/><text fill="currentColor" x="-9" dy="0.32em">0.85</text></g><g class="tick" opacity="1" transform="translate(0,87.40909090909093)"><line stroke="currentColor" x2="-6"/><text fill="currentColor" x="-9" dy="0.32em">0.90</text></g><g class="tick" opacity="1" transform="translate(0,43.954545454545524)"><line stroke="currentColor" x2="-6"/><text fill="currentColor" x="-9" dy="0.32em">0.95</text></g><g class="tick" opacity="1" transform="translate(0,0.5)"><line stroke="currentColor" x2="-6"/><text fill="currentColor" x="-9" dy="0.32em">1.00</text></g><text transform="rotate(-90)" x="-16" y="-44" dy="0.71em" fill="#333" text-anchor="end">unsup_prop (y)</text></g><circle class="dot" cx="606.0869565217391" cy="34.76363636363637" r="10.390096504226937" fill="#3b82f6" stroke="#1e40af" stroke-width="1" opacity="0.85"/><circle class="dot" cx="106.9565217391305" cy="86.90909090909093" r="11" fill="#3b82f6" stroke="#1e40af" stroke-width="1" opacity="0.85"/><circle class="dot" cx="748.6956521739131" cy="0" r="11" fill="#3b82f6" stroke="#1e40af" stroke-width="1" opacity="0.85"/><circle class="dot" cx="820" cy="243.34545454545463" r="10.390096504226937" fill="#3b82f6" stroke="#1e40af" stroke-width="1" opacity="0.85"/><circle class="dot" cx="820" cy="0" r="11" fill="#3b82f6" stroke="#1e40af" stroke-width="1" opacity="0.85"/><circle class="dot" cx="820" cy="144.84848484848487" r="11" fill="#3b82f6" stroke="#1e40af" stroke-width="1" opacity="0.85"/><circle class="dot" cx="463.47826086956536" cy="405.57575757575756" r="11" fill="#3b82f6" stroke="#1e40af" stroke-width="1" opacity="0.85"/><circle class="dot" cx="606.0869565217391" cy="0" r="4" fill="#3b82f6" stroke="#1e40af" stroke-width="1" opacity="0.85"/><path fill="none" stroke="#ef4444" stroke-width="2" d="M0,110.66L820,18.631"/><text x="814" y="14" text-anchor="end" fill="#ef4444" font-size="12px">ŷ = 0.702 + 0.276·x</text></g></svg>